<svg xmlns="http://www.w3.org/2000/svg" data-name="Layer 1" width="768.18283" height="692.30756" viewBox="0 0 768.18283 692.30756" xmlns:xlink="http://www.w3.org/1999/xlink"><path d="M333.2003,712.3703,307.587,735.95038l20.35547-34.15485c-16.03711-29.08209-42.26563-54.21613-42.26563-54.21613s-54.415,52.13392-54.415,93.11457,24.36231,55.28955,54.415,55.28955c30.05225,0,54.41455-14.3089,54.41455-55.28955C340.09141,731.57251,337.39171,721.899,333.2003,712.3703Z" transform="translate(-215.90859 -103.84622)" fill="#f2f2f2"/><path d="M301,737.22693v2.01995c-.12,23.48005-4.08,41.8-11.85,54.7-.11.19-.23.37-.34.56l-.87-.53-.82995-.52c8.62-13.93,11.67-33.62,11.78-54.1.01-.66.02-1.33.01-2-.03-8.67-.56-17.44-1.41-25.96-.06-.66-.13-1.33-.2-2-1.18-11.24-2.88-21.98-4.62-31.31-.12-.66-.25-1.32-.38-1.97-3.01-15.78-6.08-27.21-6.78-29.74-.08-.31-.13-.48-.14-.52l.95-.27.01-.01.96-.27c.01.04.18.61005.46,1.67005,1.07,3.96,3.85,14.71,6.58,28.89.12.64.25,1.3.37,1.96,1.42,7.57,2.81,16.03,3.91,24.91q.41994,3.34506.75,6.6c.07995.67.15,1.34.21,2Q300.95007,725.15194,301,737.22693Z" transform="translate(-215.90859 -103.84622)" fill="#fff"/><path d="M294.33,675.86688c-.67.09-1.35.18-2.04.25a55.1675,55.1675,0,0,1-5.64.29,53.66374,53.66374,0,0,1-23.2-5.24c-.42.53-.84,1.06-1.27,1.6a55.6507,55.6507,0,0,0,24.47,5.64,57.08008,57.08008,0,0,0,6.02-.32c.68-.07,1.36-.16,2.03-.26a55.182,55.182,0,0,0,15.95-4.83q-.645-.825-1.26-1.62A53.47956,53.47956,0,0,1,294.33,675.86688Z" transform="translate(-215.90859 -103.84622)" fill="#fff"/><path d="M299.36005,709.33691q-1.035.06-2.07.06c-.21.01-.43.01-.64.01a53.9483,53.9483,0,0,1-44.28-23.13c-.4.59-.8,1.18-1.19,1.78a55.95153,55.95153,0,0,0,45.47,23.35c.28,0,.56,0,.84-.01.7-.01,1.38995-.03,2.08-.06a55.6557,55.6557,0,0,0,29.65-10.4c-.32-.59-.64-1.18-.97-1.77A53.57785,53.57785,0,0,1,299.36005,709.33691Z" transform="translate(-215.90859 -103.84622)" fill="#fff"/><path d="M301,737.22693c-.7.06-1.4.1-2.1.13-.75.03-1.5.05-2.25.05a54.09423,54.09423,0,0,1-51.86-38.92c-.45.81-.9,1.61-1.33,2.42a56.07517,56.07517,0,0,0,53.19,38.5c.75,0,1.5-.01,2.24-.05.71-.02,1.41-.06,2.11-.11005a55.9111,55.9111,0,0,0,36.9-18.01c-.21-.74-.45-1.47-.69-2.21A53.91975,53.91975,0,0,1,301,737.22693Z" transform="translate(-215.90859 -103.84622)" fill="#fff"/><circle cx="515.96457" cy="162.30756" r="39" fill="#f0f0f0"/><path d="M931.463,229.15378v160.4a86.77806,86.77806,0,0,0-77.21,53.44q-.41969,1.005-.81006,2.01a86.4264,86.4264,0,0,0-5.75,28.31H687.30333v-122.08h125.02v-122.08Z" transform="translate(-215.90859 -103.84622)" fill="#6c63ff"/><path d="M950.5815,396.90249v83.76408H866.81716a86.74759,86.74759,0,0,1,83.76434-83.76408Z" transform="translate(-215.90859 -103.84622)" fill="#6c63ff"/><path d="M788.79307,240.9938v83.76h-83.77a86.74675,86.74675,0,0,1,51.27-76.26c.68018-.31,1.37012-.61,2.06006-.9A86.40593,86.40593,0,0,1,788.79307,240.9938Z" transform="translate(-215.90859 -103.84622)" fill="#6c63ff"/><rect x="596.41443" y="148.84092" width="119.13764" height="23.53336" fill="#3f3d56"/><rect x="596.41443" y="200.32014" width="119.13764" height="23.53336" fill="#3f3d56"/><path d="M950.5815,432.129v23.53336h-79.219A86.55384,86.55384,0,0,1,883.688,432.129Z" transform="translate(-215.90859 -103.84622)" fill="#3f3d56"/><path d="M699.95323,351.2338h-2.08008a218.35889,218.35889,0,0,0,60.43994,113.48q4.43994,4.44,9.1001,8.6h3.16016A218.04214,218.04214,0,0,1,699.95323,351.2338Z" transform="translate(-215.90859 -103.84622)" fill="#e4e4e4"/><path d="M776.91319,351.2338a216.6466,216.6466,0,0,1-19.04-89.08q0-7.335.48-14.56c-.68994.29-1.37988.59-2.06006.9q-.41967,6.795-.41992,13.66a220.59663,220.59663,0,0,0,8.99024,62.6,213.96869,213.96869,0,0,0,9.73,26.48,222.19093,222.19093,0,0,0,78.84961,93.77q.39037-1.005.81006-2.01A219.35374,219.35374,0,0,1,776.91319,351.2338Z" transform="translate(-215.90859 -103.84622)" fill="#e4e4e4"/><circle cx="495.96457" cy="344.30756" r="11" fill="#3f3d56"/><path d="M922.09,197.23624c0,39.69-22.85,54.36-51.59,55.25-.4.01-.8.02-1.21.03-.53.00994-1.07.00994-1.61.00994-30.06,0-54.42-14.31-54.42-55.29a54.87913,54.87913,0,0,1,1.13-10.69l24.48,30.61-19.16-47.23c1.51-3.52,3.23-7.02,5.1-10.48.43-.81.88-1.61,1.33-2.42005,2.01-3.55,4.16-7.04,6.39-10.43.38995-.6.79-1.19,1.18994-1.78,3.2-4.77,6.54-9.31,9.81006-13.51.43-.54.85-1.07,1.27-1.6a287.29745,287.29745,0,0,1,22.06-24.79c.49-.48.77-.75.81-.79l.01-.01s.51.48,1.42,1.4a290.07792,290.07792,0,0,1,21.64,24.4q.615.795,1.26,1.62a209.11278,209.11278,0,0,1,17.6,26.17005c.33.59.65,1.18.97,1.77a114.84283,114.84283,0,0,1,7.99,18.09c.24.74.48,1.47.69,2.21A60.41621,60.41621,0,0,1,922.09,197.23624Z" transform="translate(-215.90859 -103.84622)" fill="#e4e4e4"/><path d="M882.35,195.76627v2.01995c-.12,23.48005-4.08,41.80005-11.85,54.7-.11.19-.23.37-.34.56l-.87-.53-.83-.52c8.62-13.93,11.67-33.62,11.78-54.1.01-.66.02-1.33.01-2-.03-8.67-.56-17.44-1.41-25.96-.06-.66-.13-1.33-.2-2-1.18-11.24-2.88-21.98-4.62-31.31-.12-.66-.25-1.32-.38-1.97-3.01-15.78-6.08-27.21-6.78-29.74-.08-.31-.13-.48-.14-.52l.95-.27.01-.01.96-.27c.01.04.18.61005.46,1.67005,1.07,3.96,3.85,14.71,6.58,28.88995.12.64.25,1.3.37,1.96,1.42,7.57,2.81,16.03,3.91,24.91q.42,3.34508.75,6.6c.08.67.15,1.34.21,2Q882.30006,183.69128,882.35,195.76627Z" transform="translate(-215.90859 -103.84622)" fill="#fff"/><path d="M977.2003,305.90964,951.587,329.48972l20.35547-34.15485c-16.03711-29.08209-42.26563-54.21613-42.26563-54.21613s-54.415,52.13392-54.415,93.11457,24.36231,55.28955,54.415,55.28955c30.05225,0,54.41455-14.3089,54.41455-55.28955C984.09141,325.11185,981.39171,315.43832,977.2003,305.90964Z" transform="translate(-215.90859 -103.84622)" fill="#e4e4e4"/><path d="M491.69094,539.03165a9.27619,9.27619,0,0,0-12.71119-6.38328l-22.2829-24.29262L452.533,524.97208l21.79858,20.52122a9.32648,9.32648,0,0,0,17.35935-6.46165Z" transform="translate(-215.90859 -103.84622)" fill="#9f616a"/><polygon points="227.922 677.523 241.537 677.522 248.015 625.005 227.92 625.006 227.922 677.523" fill="#9f616a"/><path d="M440.35754,776.92351l26.81362-.00108h.00108A17.08865,17.08865,0,0,1,484.26,794.0099v.55528l-43.90163.00163Z" transform="translate(-215.90859 -103.84622)" fill="#2f2e41"/><polygon points="149.733 664.035 162.462 668.867 187.155 622.067 168.368 614.937 149.733 664.035" fill="#9f616a"/><path d="M363.97171,762.49312l25.06871,9.51474.001.00038a17.08866,17.08866,0,0,1,9.91142,22.03943l-.19706.51914-41.04466-15.5785Z" transform="translate(-215.90859 -103.84622)" fill="#2f2e41"/><path d="M410.46075,606.68631l-11.283,60.71309s-30.62517,85.42809-28.476,87.57723,31.69973,9.67107,30.08789,4.83556,35.46072-77.36892,35.46072-77.36892Z" transform="translate(-215.90859 -103.84622)" fill="#2f2e41"/><path d="M456.216,496.35567s22.77689,29.77378,19.79207,31.39782-14.5467,10.23624-14.5467,10.23624l-11.76372-32.28449Z" transform="translate(-215.90859 -103.84622)" fill="#e4e4e4"/><path d="M462.57727,526.40841s3.761,27.93876,2.14914,33.84884-.53729,173.54265.53731,176.22908,4.29828,11.82021,2.68642,16.11849-23.64048,15.04393-26.86419,11.28293-26.86418-140.76827-26.86418-140.76827-33.31159-82.74166-25.78962-90.80093S462.57727,526.40841,462.57727,526.40841Z" transform="translate(-215.90859 -103.84622)" fill="#2f2e41"/><circle cx="414.24224" cy="320.52452" r="26.32689" transform="translate(-271.38366 -15.05052) rotate(-11.47249)" fill="#9f616a"/><path d="M435.71283,302.55057c.0143-4.61032-4.20716-8.06055-8.33319-10.11758a44.97511,44.97511,0,0,0-28.99365-3.74362c-6.89755,1.43893-13.65335,4.7119-17.95478,10.29262-5.01719,6.5093-6.07762,15.53024-3.93517,23.46454s7.18548,14.84854,13.226,20.42129c2.89915,2.67467,7.1922,5.18118,10.5313,3.08137a9.02278,9.02278,0,0,0,2.91582-3.68662,55.69413,55.69413,0,0,0,4.15092-10.49543c.78383-2.77774,1.36692-5.65611,2.76426-8.18147s3.82551-4.70415,6.70595-4.8862c2.37932-.15039,4.98038,1.01817,7.03254-.19533,2.28305-1.35006,2.23938-4.611,1.90861-7.24268-.36254-2.88456-1.18207-6.14481-.93832-8.991C425.74949,302.556,435.7191,304.75694,435.71283,302.55057Z" transform="translate(-215.90859 -103.84622)" fill="#2f2e41"/><rect x="480.53609" y="512.7044" width="31.79209" height="31.79209" transform="matrix(0.98445, -0.17565, 0.17565, 0.98445, -301.03838, -8.43051)" fill="#6c63ff"/><circle cx="276.02514" cy="399.54209" r="9.71425" fill="#3f3d56"/><path d="M441.75011,380.02182a18.66369,18.66369,0,0,0-6.00489-11.03986L430.944,354.30722H402.735l-7.86084,12.33533c-8.50488,3.6615-14.80176,9.46679-15.03858,16.31115-1.30029,4.54541,4.29834,148.82758,5.91016,154.20038.47266,1.56354,6.9043,2.40161,15.936,2.7724,8.28466.33844,18.75634.2901,28.80908.059,16.645-.38678,32.16162-1.27868,34.77295-1.75689C471.17393,537.15408,442.33555,383.4119,441.75011,380.02182Z" transform="translate(-215.90859 -103.84622)" fill="#e4e4e4"/><path d="M416.80972,571.35178a9.27621,9.27621,0,0,1-1.82647-14.1062l-15.56907-29.0562,17.05906,1.55828L428.64256,557.101a9.32648,9.32648,0,0,1-11.83284,14.25076Z" transform="translate(-215.90859 -103.84622)" fill="#9f616a"/><path d="M597.90859,796.15378h-381a1,1,0,0,1,0-2h381a1,1,0,0,1,0,2Z" transform="translate(-215.90859 -103.84622)" fill="#cacaca"/><path d="M414.22173,364.14874s24.71506,10.20839,15.58124,35.998-19.3422,56.41478-19.3422,56.41478,12.89481,69.3096,12.89481,71.996,8.0593,17.19307,4.83556,19.87949-24.71505,8.05927-25.25234,5.37285a181.70822,181.70822,0,0,0-5.91012-18.26763c-1.07457-2.14914-26.32689-69.3096-23.10319-75.21973,2.37227-4.34919,4.45361-44.195,5.38753-64.93909a34.10676,34.10676,0,0,1,17.781-28.71507C402.1033,364.01345,407.93552,362.57718,414.22173,364.14874Z" transform="translate(-215.90859 -103.84622)" fill="#e4e4e4"/><path d="M875.68,134.40622c-.67.09-1.35.18005-2.04.25a55.1673,55.1673,0,0,1-5.64.29,53.66371,53.66371,0,0,1-23.2-5.24c-.42.53-.84,1.06-1.27,1.6a55.65066,55.65066,0,0,0,24.47,5.64,57.08008,57.08008,0,0,0,6.02-.32c.68-.07,1.36-.16,2.03-.26a55.18211,55.18211,0,0,0,15.95-4.83q-.645-.825-1.26-1.62A53.47953,53.47953,0,0,1,875.68,134.40622Z" transform="translate(-215.90859 -103.84622)" fill="#fff"/><path d="M880.71,167.87625q-1.035.06-2.07.06c-.21.01-.43.01-.64.01a53.94832,53.94832,0,0,1-44.28-23.13c-.4.59-.8,1.18-1.18994,1.78a55.95152,55.95152,0,0,0,45.47,23.35c.28,0,.56,0,.84-.01.7-.01,1.38995-.03,2.08-.06a55.65576,55.65576,0,0,0,29.65-10.4c-.32-.59-.64-1.18-.97-1.77A53.57792,53.57792,0,0,1,880.71,167.87625Z" transform="translate(-215.90859 -103.84622)" fill="#fff"/><path d="M882.35,195.76627c-.7.06-1.4.1-2.1.13-.75.03-1.5.05-2.25.05a54.09423,54.09423,0,0,1-51.86-38.92005c-.45.81006-.9,1.61005-1.33,2.42005a56.07516,56.07516,0,0,0,53.19,38.5c.75,0,1.5-.01,2.24-.05.71-.02,1.41-.06,2.11-.11005a55.91111,55.91111,0,0,0,36.9-18.01c-.21-.74-.45-1.47-.69-2.21A53.91975,53.91975,0,0,1,882.35,195.76627Z" transform="translate(-215.90859 -103.84622)" fill="#fff"/><path d="M945,332.76627v2.01995c-.12,23.48005-4.08,41.80005-11.85,54.7-.11.19-.23.37-.34.56l-.87-.53-.83-.52c8.62-13.93,11.67-33.62,11.78-54.1.01-.66.02-1.33.01-2-.03-8.67-.56-17.44-1.41-25.96-.06-.66-.13-1.33-.2-2-1.18-11.24-2.88-21.98-4.62-31.31-.12-.66-.25-1.32-.38-1.97-3.01-15.78-6.08-27.21-6.78-29.74-.08-.31-.13-.48-.14-.52l.95-.27.01-.01.96-.27c.01.04.18.61005.46,1.67005,1.07,3.96,3.85,14.71,6.58,28.89.12.64.25,1.3.37,1.96,1.42,7.57,2.81,16.03,3.91,24.91q.41994,3.34508.75,6.6c.08.67.15,1.34.21,2Q944.95007,320.69128,945,332.76627Z" transform="translate(-215.90859 -103.84622)" fill="#fff"/><path d="M938.33,271.40622c-.67.09-1.35.18-2.04.25a55.1675,55.1675,0,0,1-5.64.29,53.66374,53.66374,0,0,1-23.2-5.24c-.42.53-.84,1.06-1.27,1.6a55.6507,55.6507,0,0,0,24.47,5.64,57.08008,57.08008,0,0,0,6.02-.32c.68-.07,1.36-.16,2.03-.26a55.182,55.182,0,0,0,15.95-4.83q-.645-.825-1.26-1.62A53.47956,53.47956,0,0,1,938.33,271.40622Z" transform="translate(-215.90859 -103.84622)" fill="#fff"/><path d="M943.36005,304.87625q-1.035.06-2.07.06c-.21.01-.43.01-.64.01a53.9483,53.9483,0,0,1-44.28-23.13c-.4.59-.8,1.18-1.18995,1.78a55.95153,55.95153,0,0,0,45.47,23.35c.28,0,.56,0,.84-.01.7-.01,1.38995-.03,2.08-.06a55.6557,55.6557,0,0,0,29.65-10.4c-.32-.59-.64-1.18-.97-1.77A53.57785,53.57785,0,0,1,943.36005,304.87625Z" transform="translate(-215.90859 -103.84622)" fill="#fff"/><path d="M945,332.76627c-.69995.06-1.4.1-2.1.13-.75.03-1.5.05-2.25.05a54.09423,54.09423,0,0,1-51.86-38.92005c-.45.81006-.9,1.61005-1.33,2.42005a56.07517,56.07517,0,0,0,53.19,38.5c.75,0,1.5-.01,2.24-.05.71-.02,1.41-.06,2.11-.11005a55.91107,55.91107,0,0,0,36.9-18.01c-.21-.74-.45-1.47-.69-2.21A53.91975,53.91975,0,0,1,945,332.76627Z" transform="translate(-215.90859 -103.84622)" fill="#fff"/></svg>