<svg xmlns="http://www.w3.org/2000/svg" data-name="Layer 1" width="570.22183" height="670.69599" viewBox="0 0 570.22183 670.69599" xmlns:xlink="http://www.w3.org/1999/xlink"><path d="M876.61092,675.652h-380a8.50981,8.50981,0,0,1-8.5-8.5v-544a8.5095,8.5095,0,0,1,8.5-8.5h380a8.50951,8.50951,0,0,1,8.5,8.5v544A8.50982,8.50982,0,0,1,876.61092,675.652Z" transform="translate(-314.88908 -114.65201)" fill="#3f3d56"/><path d="M868.61092,667.652h-364a8.50981,8.50981,0,0,1-8.5-8.5v-528a8.5095,8.5095,0,0,1,8.5-8.5h364a8.50951,8.50951,0,0,1,8.5,8.5v528A8.50982,8.50982,0,0,1,868.61092,667.652Z" transform="translate(-314.88908 -114.65201)" fill="#fff"/><path d="M604.17819,639.96644c-32.38038-42.74419-19.53926-91.5294-38.50972-125.56309C492.96193,383.9639,582.49,395.98147,683.71047,421.34768l.24132,2.814c-64.423,9.942-106.79137,43.09817-116.24155,90.96614-7.34453,37.20144,6.1329,80.82022,37.94974,122.82118Z" transform="translate(-314.88908 -114.65201)" fill="#f0f0f0"/><path d="M675.306,480.88694l-.67645-2.68253c36.14364-16.38694,33.03824-65.1951,65.3754-76.34061,246.33374-84.90381,3.17529-94.47852-51.51855-139.38867-48.91016-40.16114-102.21394-86.85395-169.95685-110.902l.54033-2.73784c68.03886,24.15384,128.69039,63.744,170.77978,111.47782,42.30181,47.97305,60.83921,98.50072,52.197,142.27506C735.23153,437.10708,712.15285,464.182,675.306,480.88694Z" transform="translate(-314.88908 -114.65201)" fill="#f0f0f0"/><path d="M576.91813,386.8151c-16.51709-1.3048,2.97279-12.23534,4.27759-28.75243a30,30,0,1,1,59.81365,4.7251C639.70457,379.30486,593.43521,388.1199,576.91813,386.8151Z" transform="translate(-314.88908 -114.65201)" fill="#6c63ff"/><path d="M735.50872,283.985a30,30,0,0,1-27.54428-32.26938c1.3048-16.51709-31.49549-27.56594-14.97841-26.26114s76.09687,14.46916,74.79207,30.98624A30,30,0,0,1,735.50872,283.985Z" transform="translate(-314.88908 -114.65201)" fill="#6c63ff"/><path d="M771.66061,246.33437c2.17675,4.51555.89343,9.73249-1.98127,13.63107-3.26977,4.43438-8.47065,6.6203-13.8058,7.34275a42.49189,42.49189,0,0,1-17.07063-1.40565c-5.3401-1.54119-10.88219-4.84459-11.98367-10.74622-.73414-3.93343.944-8.13111,5.02867-9.22143a9.83561,9.83561,0,0,1,9.31137,2.52616c3.39174,3.53011,3.13355,9.196.978,13.29618-2.53524,4.82231-7.60794,7.48342-12.82353,8.36157-6.20085,1.044-12.43164-.41436-18.265-2.48939-6.34024-2.25532-12.49067-5.06371-18.70284-7.64345-12.11472-5.03092-24.49025-9.757-37.51805-11.76066-19.90135-3.0608-43.52029,1.70533-55.70318,19.15317-6.57661,9.41875-8.43964,21.23107-7.02416,32.4683,1.49275,11.85062,6.69269,22.74052,13.57806,32.384a137.50588,137.50588,0,0,0,11.91555,14.259,9.82012,9.82012,0,0,1,2.267,10.69886c-3.77426,9.27354-18.86444,6.31808-19.98881-3.241-.51089-4.34348,1.9124-8.8168,4.94033-11.76289a23.28384,23.28384,0,0,1,12.418-6.01583c9.79169-1.63516,20.14217,1.99532,27.6269,8.3014,8.45572,7.12418,13.216,17.95059,15.7234,28.48985,2.8547,11.99923,3.00032,24.3408,3.27158,36.60637.2776,12.55182.75475,25.25217,4.35575,37.36709a92.3427,92.3427,0,0,0,13.37931,27.22636,96.45416,96.45416,0,0,0,48.07938,35.62972,88.35188,88.35188,0,0,0,14.38441,3.36974c1.91064.28326,2.1388-2.70862.23625-2.99069-21.27419-3.154-40.838-14.67269-54.84308-30.86338a91.476,91.476,0,0,1-16.38869-27.31853c-4.56715-12.038-5.72527-24.82483-6.09812-37.60112-.3808-13.04851-.17345-26.21511-2.78586-39.069-2.3095-11.36339-6.83963-22.87024-15.22921-31.14969-7.39735-7.30025-17.98029-11.81673-28.43941-11.33223-9.73194.45082-20.138,5.81075-23.03,15.74038-1.357,4.65913-.4937,9.66088,3.06325,13.12161a15.12983,15.12983,0,0,0,15.49294,3.27426,12.55132,12.55132,0,0,0,6.96855-15.35454,15.27554,15.27554,0,0,0-3.762-5.75445c-8.77942-9.376-16.83617-19.86816-21.20806-32.07675-4.07776-11.38723-4.91413-24.4864-.21133-35.817,8.90314-21.45071,34.74174-27.89613,55.78886-24.89809,13.77417,1.96205,26.81632,7.177,39.5755,12.5113,6.51539,2.72391,12.98879,5.75115,19.746,7.83625,6.04993,1.86685,12.54194,2.80431,18.775,1.27323,5.44023-1.33633,10.44021-4.49941,13.07554-9.55943,2.3938-4.59628,2.80686-10.42859-.03994-14.93152-4.1159-6.51034-15.48059-7.97481-19.622-.66255-2.748,4.85192-1.39793,11.06485,2.21105,15.08881,4.04614,4.51138,10.10529,6.35408,15.90385,7.28411,10.957,1.75741,24.44964.37629,30.31151-10.44615,2.41495-4.45857,3.06707-9.77442.82027-14.43528a1.50112,1.50112,0,0,0-2.70161,1.30546Z" transform="translate(-314.88908 -114.65201)" fill="#3f3d56"/><path d="M736.41556,513.77009c-17.51544-1.38367-64.34826,22.58261-77.02568,12.27219q-2.37633-1.918-4.59731-4.0245a82.599,82.599,0,0,1-12.75013-15.23146c-.62769-.94231-1.22477-1.89231-1.80106-2.85064a84.197,84.197,0,0,1-5.35155-10.6044c-.26861-.66323-.53637-1.33637-.8042-2.00958a83.50589,83.50589,0,0,1,141.79559-83.87381c.67942.796,1.3373,1.61032,1.98369,2.44378a83.16474,83.16474,0,0,1,14.24826,27.75827c-.00079.01.00919.01077.0084.02075a83.83137,83.83137,0,0,1,.20678,46.27l-.00158.02c-.09656.33339-.19313.66685-.29962.99952C781.08747,521.98357,776.44089,516.932,736.41556,513.77009Z" transform="translate(-314.88908 -114.65201)" fill="#6c63ff"/><path d="M635.26787,493.37118a1.58022,1.58022,0,0,1-.378-.0399c-.26861-.66323-.53637-1.33637-.8042-2.00958a1.49975,1.49975,0,0,1,1.4185-.9412,20.49565,20.49565,0,0,0,4.5047-.51685c12.82812-2.89879,20.30549-16.03071,23.50876-27.75486,3.93187-14.3449,3.98591-29.7585,11.09187-43.14048a37.88812,37.88812,0,0,1,11.82515-13.82164,26.92226,26.92226,0,0,1,18.75375-4.38677c15.477,2.0452,26.77361,13.96183,41.14184,18.8686,5.91911,2.02241,12.21949,2.52012,18.139.21914,5.02917-1.95,9.61669-5.80067,10.65581-11.336a1.45264,1.45264,0,0,1,.75616-1.06375c.67942.796,1.3373,1.61032,1.98369,2.44378a14.57849,14.57849,0,0,1-1.00152,2.90017c-2.525,5.29758-7.5603,8.72167-13.0423,10.43529-6.34533,1.97641-12.94661,1.22423-19.12152-.989-14.39831-5.15987-26.24083-17.91212-42.13768-18.70647-13.77865-.68726-23.30015,10.63812-27.88484,22.45371-5.66887,14.619-4.82678,31.00622-11.19087,45.40976C658.47827,482.726,648.44294,493.31855,635.26787,493.37118Z" transform="translate(-314.88908 -114.65201)" fill="#3f3d56"/><path d="M642.04244,506.78632c-.62769-.94231-1.22477-1.89231-1.80106-2.85064a1.24765,1.24765,0,0,1,1.00293-.25182,50.76505,50.76505,0,0,0,36.20233-9.649,50.15773,50.15773,0,0,0,11.72725-12.07392c3.3241-4.87335,5.33182-10.35225,7.58482-15.76163,2.216-5.32206,4.81787-10.70381,9.22516-14.55871,4.49331-3.92836,10.29116-5.57687,16.16339-5.755,13.916-.41539,26.05068,7.4948,39.59425,9.12644,6.04145.728,12.03859-.14234,17.21031-3.51556,4.46366-2.91755,7.71351-7.4858,7.50469-12.96929-.0776-1.81172,2.5613-1.69357,2.94688-.09825a1.60151,1.60151,0,0,1,.0438.33451c.2384,6.37861-3.68359,11.8367-8.84533,15.21064-5.9981,3.92986-13.00637,4.901-20.01977,3.90557-13.56978-1.93464-26.11195-10.14788-40.153-8.90983a21.07324,21.07324,0,0,0-15.22591,7.85536c-3.69506,4.74376-5.64742,10.538-7.92746,16.03549a55.59973,55.59973,0,0,1-8.961,15.15136,54.8931,54.8931,0,0,1-13.337,11.24462A53.17958,53.17958,0,0,1,642.04244,506.78632Z" transform="translate(-314.88908 -114.65201)" fill="#3f3d56"/><path d="M659.38988,526.04228q-2.37633-1.918-4.59731-4.0245a56.746,56.746,0,0,0,23.37591.97392,58.90217,58.90217,0,0,0,26.83179-11.66323,51.60253,51.60253,0,0,0,10.202-10.66971c3.273-4.60654,6.13274-9.69712,11.06832-12.7479,10.71433-6.61678,23.53783-.56817,34.23489,2.68437,5.58308,1.705,11.58069,2.86089,17.26706.97282,4.40921-1.46732,8.6887-4.72043,9.5599-9.52673.33983-1.88908,3.34128-1.662,2.99068.23626q-.1023.53357-.23461,1.06484c-1.37515,5.21791-5.645,8.98338-10.68464,10.81214-6.577,2.36942-13.39077,1.25937-19.92427-.73131-10.74532-3.27643-24.78843-10.01326-34.5105-.72-4.10135,3.91917-6.61723,9.22751-10.31591,13.50953a55.75879,55.75879,0,0,1-11.31423,10.02011A62.58588,62.58588,0,0,1,659.38988,526.04228Z" transform="translate(-314.88908 -114.65201)" fill="#3f3d56"/><path d="M869.11092,739.152h-71a8.50981,8.50981,0,0,1-8.5-8.5v-25a8.5095,8.5095,0,0,1,8.5-8.5h71a8.50951,8.50951,0,0,1,8.5,8.5v25A8.50982,8.50982,0,0,1,869.11092,739.152Z" transform="translate(-314.88908 -114.65201)" fill="#e6e6e6"/><polygon points="142.482 334.364 144.356 351.746 143.253 374.538 193.738 368.54 198.482 334.364 192.438 334.424 142.482 334.364" fill="#ffb6b6"/><path d="M517.61092,395.152l-15.6085-5.77271-6.67-9.68594-23.99252-2.39925-14.79926,9.48075-12.40673,6.31775.21253,32.98785L458.61092,485.152l51-2,6.713-42.12345s15.59514-20.94623-1.19962-32.94249Z" transform="translate(-314.88908 -114.65201)" fill="#ccc"/><polygon points="116.296 649.938 127.334 649.938 132.586 607.364 116.296 607.364 116.296 649.938" fill="#ffb6b6"/><path d="M427.58288,757.0301l17.634-1.05251v7.55516l16.76509,11.57857a4.71924,4.71924,0,0,1-2.68162,8.60273H438.30642l-3.61861-7.4732-1.41289,7.4732h-7.91553Z" transform="translate(-314.88908 -114.65201)" fill="#2f2e41"/><polygon points="178.296 649.938 189.334 649.938 194.586 607.364 178.296 607.364 178.296 649.938" fill="#ffb6b6"/><path d="M489.58288,757.0301l17.634-1.05251v7.55516l16.76509,11.57857a4.71924,4.71924,0,0,1-2.68162,8.60273H500.30642l-3.61861-7.4732-1.41289,7.4732h-7.91553Z" transform="translate(-314.88908 -114.65201)" fill="#2f2e41"/><path d="M426.42278,727.87634h.12l2.12275-69.22333a18.10108,18.10108,0,0,1,.2375-17.1052l.30391-.55014-.788-3.65272a23.26659,23.26659,0,0,1,1.32959-14.00271l1.98032-64.57252c-7.07488-45.85118,26.64191-75.75358,26.64191-75.75358H508.879l10.84353,37.2558c7.16852,69.84052,5.8678,137.898-5.50763,203.83417l.31012.15682c1.11666.38546,1.59558,1.93234,1.07,3.45519s-1.85694,2.44491-2.97359,2.05946l-26.67414-.92778c-1.11665-.38536-1.59575-1.93234-1.07-3.45519.52557-1.52285,1.85694-2.44482,2.9736-2.05945l1.81367.91734-3.86793-66.79789.42925-12.20106-.88432-13.84185-4.08866-62.26057-15.47616,76.563L449.96859,728.6468a2.908,2.908,0,0,1-1.96092,5.0635H426.42278a2.917,2.917,0,0,1,0-5.834Z" transform="translate(-314.88908 -114.65201)" fill="#2f2e41"/><path d="M421.17168,531.76014a9.15747,9.15747,0,0,1,.982-14.00749l13.4572-82.60064,15.78254,5.5529-15.99258,79.57037a9.20709,9.20709,0,0,1-14.2292,11.48486Z" transform="translate(-314.88908 -114.65201)" fill="#ffb6b6"/><path d="M446.25629,393.01907s-4.52689-1.706-6.16987,8.41106c-1.31532,8.09948-14.15648,56.98834-12.94154,68.31593a7.194,7.194,0,0,0-4.78934,7.406l23.67831.12117c3.6255-3.95447,4.09577-8.72533,2.34494-9.89783l3.276-14.454L467.08238,406.289l-17.53194-12.09491Z" transform="translate(-314.88908 -114.65201)" fill="#ccc"/><path d="M530.18419,535.27655a9.15743,9.15743,0,0,0,.227-14.04l-4.80022-83.0845-17.701,3.80645,9.08614,80.65139a9.20709,9.20709,0,0,0,13.18814,12.6667Z" transform="translate(-314.88908 -114.65201)" fill="#ffb6b6"/><path d="M517.13144,394.89155s4.65691-1.31012,5.4232,8.91079c.61348,8.18262,9.20007,57.99514,7.01488,69.17616a7.194,7.194,0,0,1,4.13429,7.7906l-23.60091-1.91682c-3.27177-4.25177-3.32975-9.04541-1.48452-10.0629l-2.02-14.68227L495.2407,406.32019l18.5077-10.5414Z" transform="translate(-314.88908 -114.65201)" fill="#ccc"/><circle cx="157.92013" cy="237.06195" r="23.87576" fill="#ffb8b8"/><path d="M425.35848,401.89139q-7.57867-2.6859-15.15737-5.38157a15.25778,15.25778,0,0,1,3.28123-3.86194c4.81048-4.01685,11.45032-4.74278,17.55782-6.09782,6.11719-1.35509,12.757-4.133,14.993-9.97914,2.32294-6.07849-1.04536-12.64088-3.00055-18.83552-2.7392-8.64342-2.68113-18.2935.98728-26.5788,3.66835-8.2853,11.12126-15.00259,19.968-16.9771,8.84664-1.96488,18.84515,1.23889,24.28479,8.47889a14.97418,14.97418,0,0,1,18.02246,8.34337c1.268,3.17471,1.30671,6.998-.58072,9.8533s-5.9236,4.3169-8.96284,2.72951l1.7616-4.47173c-5.44933,1.84868-8.99186,11.702-8.25629,17.41267.72593,5.701,4.05554,10.69538,7.43359,15.351,3.378,4.65564,6.97858,9.35966,8.43045,14.92514,2.09071,8.00462-.73562,16.7545-5.9623,23.17174-5.22673,6.41724-12.5925,10.77283-20.21963,13.9766a93.731,93.731,0,0,1-17.71272,5.459c1.08406-2.11,2.15842-4.22006,3.24248-6.3301l-12.86349,7.782c-2.48753.242-4.99444.38718-7.5013.43557-7.298.12583-14.74117-.63886-21.41988-3.55221-6.68817-2.9231-12.56344-8.2176-14.98321-15.09941a19.56891,19.56891,0,0,1-1.08394-6.93021Q416.48756,403.79818,425.35848,401.89139Z" transform="translate(-314.88908 -114.65201)" fill="#2f2e41"/><path d="M401.27985,757.415a3.61324,3.61324,0,0,1-2.61866-6.26263c.09111-.36212.15647-.62217.24758-.98429q-.04889-.11823-.09837-.23628a9.70311,9.70311,0,0,0-17.89849.06652c-2.92739,7.05051-6.65446,14.11307-7.57216,21.56779a28.70546,28.70546,0,0,0,.50391,9.87235,115.086,115.086,0,0,1-10.46893-47.79893,111.07977,111.07977,0,0,1,.689-12.392q.5708-5.05968,1.58377-10.0473a116.41944,116.41944,0,0,1,23.087-49.34152,30.98262,30.98262,0,0,0,12.88557-13.36893,23.6336,23.6336,0,0,0,2.14933-6.45821c-.62729.08228-1.26489.13369-1.89218.17479-.19542.01023-.40108.02055-.5965.03086l-.0737.00331a3.5799,3.5799,0,0,1-2.9401-5.83225q.40629-.5.81306-.99949c.41139-.51422.833-1.01813,1.24434-1.53227a1.78219,1.78219,0,0,0,.13369-.15433c.47312-.58618.94609-1.16206,1.41921-1.74824a10.35164,10.35164,0,0,0-3.39366-3.28044c-4.74084-2.77662-11.28133-.85358-14.70586,3.43476-3.43477,4.28826-4.0826,10.30438-2.88976,15.66218a41.48489,41.48489,0,0,0,5.73842,12.793c-.25716.32912-.52454.64792-.78161.977a117.17121,117.17121,0,0,0-12.22973,19.37481,48.70916,48.70916,0,0,0-2.908-22.62447c-2.78346-6.71479-8.00064-12.37-12.595-18.175-5.51857-6.9726-16.83489-3.92959-17.80714,4.90927q-.0141.12839-.02756.25666,1.02362.57749,2.004,1.22586a4.9011,4.9011,0,0,1-1.976,8.91908l-.09994.01543a48.76572,48.76572,0,0,0,1.28543,7.29124,50.2099,50.2099,0,0,0,24.99984,31.46837c.40108.20565.79193.41131,1.193.60673a119.59684,119.59684,0,0,0-6.43767,30.296,113.43411,113.43411,0,0,0,.08228,18.31542l-.03087-.216A29.974,29.974,0,0,0,351.065,725.91638c-7.87437-6.46853-18.99939-8.8505-27.49445-14.04994a5.62528,5.62528,0,0,0-8.61571,5.47252q.01707.1135.03474.227a32.92361,32.92361,0,0,1,3.69183,1.779q1.02363.57761,2.004,1.22585a4.90115,4.90115,0,0,1-1.976,8.91916l-.1.01535c-.072.01032-.13369.02064-.20558.031a48.80783,48.80783,0,0,0,8.97768,14.05786,50.25441,50.25441,0,0,0,36.44572,15.99129h.01032a119.562,119.562,0,0,0,8.03167,23.447h28.69167c.10291-.3188.19542-.64792.288-.96672a32.59922,32.59922,0,0,1-7.93916-.473c2.12878-2.61214,4.25747-5.24483,6.38625-7.85688a1.78444,1.78444,0,0,0,.13369-.15424c1.07978-1.33686,2.16988-2.66347,3.24966-4.00032l.00058-.00166a47.75069,47.75069,0,0,0-1.39916-12.16411Z" transform="translate(-314.88908 -114.65201)" fill="#f2f2f2"/><path d="M593.99349,785.04066l-275.75.30733a1.19068,1.19068,0,1,1,0-2.38137l275.75-.30733a1.19068,1.19068,0,0,1,0,2.38137Z" transform="translate(-314.88908 -114.65201)" fill="#cacaca"/></svg>