<?xml version="1.0" ?>
<svg version="1.1" xmlns="http://www.w3.org/2000/svg"
  viewBox="0 0 318.188 318.188">
  <g>
    <polygon style="fill:#E8E8E8;"
      points="227.321,7.5 40.342,7.5 40.342,310.688 277.846,310.688 277.846,58.025 	"/>
    <g id="cup" transform=" translate(0 55)">
      <path style="fill:#FFFFFF;" d="M212.413,149.994H187.74c-1.916,0-3.472-1.555-3.472-3.472s1.556-3.47,3.472-3.47h24.673
			c5.574,0,10.107-4.536,10.107-10.107c0-5.575-4.533-10.109-10.107-10.109h-11.751c-1.917,0-3.471-1.556-3.471-3.471
			c0-1.918,1.554-3.471,3.471-3.471h11.751c9.402,0,17.05,7.646,17.05,17.051C229.463,142.346,221.815,149.994,212.413,149.994z"/>
      <path style="fill:#FFFFFF;" d="M214.446,107.405c-5.797,25.057-17.47,48.618-46.085,54.228H136.81
			c-28.61-5.609-40.287-29.171-46.084-54.228H214.446z"/>
      <rect x="109.405" y="160.459" style="fill:#A4A9AD;" width="86.357" height="10.628"/>
    </g>
    <polygon style="fill:#FB9200;" points="235.14,32.763 40.342,32.763 40.342,7.5 227.321,7.5 	"/>
    <path style="fill:#333E48;" d="M283.149,52.723L232.625,2.197C231.218,0.79,229.311,0,227.321,0H40.342c-4.142,0-7.5,3.358-7.5,7.5
		v303.188c0,4.143,3.358,7.5,7.5,7.5h237.504c4.143,0,7.5-3.357,7.5-7.5V58.025C285.346,56.036,284.556,54.129,283.149,52.723z
		 M234.821,25.606l24.918,24.919h-24.918L234.821,25.606L234.821,25.606z M47.842,15h171.979v10.263H47.842V15z M270.346,303.188
		H47.842V40.263h171.979v17.763c0,4.143,3.357,7.5,7.5,7.5h43.024v237.662H270.346z M138.69,233.195l-15.654,48.176h14.243
		l2.429-8.992h15.588l2.362,8.992h14.178l-15.851-48.176H138.69z M142.398,261.746c1.991-7.525,3.276-12.568,3.856-15.129
		c0.58-2.56,0.968-4.397,1.166-5.514c0.218,1.204,0.673,3.195,1.361,5.973c0.689,2.779,1.274,5.043,1.756,6.794l2.067,7.876H142.398
		z M212.3,247.568c0-9.451-6.52-14.177-19.559-14.177h-15.72v47.979h12.963v-17.459h3.281l10.174,17.459h14.702l-13.98-20.904
		C209.587,257.426,212.3,253.127,212.3,247.568z M192.412,254.166h-2.428v-10.962h2.56c4.441,0,6.662,1.652,6.662,4.956
		C199.206,252.164,196.941,254.166,192.412,254.166z M104.822,277.794c0,3.129-0.459,5.338-1.378,6.63
		c-0.919,1.29-2.451,1.936-4.594,1.936c-0.919,0-1.772-0.082-2.56-0.246s-1.531-0.313-2.231-0.443v10.075
		c2.123,0.46,4.365,0.689,6.728,0.689c5.688,0,9.955-1.669,12.799-5.005s4.266-8.254,4.266-14.752v-43.286h-13.028v44.402H104.822z"
    />
  </g>
  <g transform="translate(70 45.5) scale(0.5 0.5)">
    <path style="fill:#F8981D;"
      d="M188.495,4.399c0,0,38.55,38.563-36.563,97.862c-60.233,47.568-13.735,74.69-0.025,105.678   c-35.159-31.722-60.961-59.647-43.651-85.637C133.663,84.151,204.049,65.654,188.495,4.399"/>
    <path style="fill:#F8981D;"
      d="M168.625,181.799c17.896,20.604-4.702,39.145-4.702,39.145s45.441-23.458,24.572-52.833   c-19.491-27.394-34.438-41.005,46.479-87.934C234.974,80.177,107.961,111.899,168.625,181.799"/>
  </g>
</svg>
